<mxfile host="app.diagrams.net" modified="2024-06-20T08:21:01.900Z" agent="Mozilla/5.0 (Windows NT 10.0; Win64; x64) AppleWebKit/537.36 (KHTML, like Gecko) Chrome/126.0.0.0 Safari/537.36 Edg/126.0.0.0" etag="tyFyJ5YRKOqwb65Qgpyf" version="24.5.5" type="device" pages="4">
  <diagram name="Page-1" id="ufd8a6W6rXK1Jlk82Z4m">
    <mxGraphModel dx="1386" dy="751" grid="1" gridSize="10" guides="1" tooltips="1" connect="1" arrows="1" fold="1" page="1" pageScale="1" pageWidth="850" pageHeight="1100" math="1" shadow="0">
      <root>
        <mxCell id="0" />
        <mxCell id="1" parent="0" />
        <mxCell id="PWPVRY5652Ok6KfdJgsY-1" value="" style="ellipse;whiteSpace=wrap;html=1;fillStyle=hatch;fillColor=#FFCE9F;sketch=1;curveFitting=1;jiggle=2;shadow=0;strokeColor=#808080;" vertex="1" parent="1">
          <mxGeometry x="270" y="110" width="280" height="120" as="geometry" />
        </mxCell>
        <mxCell id="PWPVRY5652Ok6KfdJgsY-2" value="" style="ellipse;whiteSpace=wrap;html=1;aspect=fixed;fillColor=#000000;" vertex="1" parent="1">
          <mxGeometry x="490" y="150" width="10" height="10" as="geometry" />
        </mxCell>
        <mxCell id="PWPVRY5652Ok6KfdJgsY-3" value="" style="ellipse;whiteSpace=wrap;html=1;aspect=fixed;fillColor=#000000;" vertex="1" parent="1">
          <mxGeometry x="320" y="180" width="10" height="10" as="geometry" />
        </mxCell>
        <mxCell id="PWPVRY5652Ok6KfdJgsY-4" value="" style="ellipse;whiteSpace=wrap;html=1;aspect=fixed;fillColor=#000000;" vertex="1" parent="1">
          <mxGeometry x="540" y="100" width="10" height="10" as="geometry" />
        </mxCell>
        <mxCell id="PWPVRY5652Ok6KfdJgsY-5" value="&lt;font style=&quot;font-size: 16px;&quot;&gt;$$H$$&amp;nbsp;&lt;/font&gt;" style="text;html=1;align=center;verticalAlign=middle;whiteSpace=wrap;rounded=0;" vertex="1" parent="1">
          <mxGeometry x="375" y="70" width="70" height="40" as="geometry" />
        </mxCell>
        <mxCell id="PWPVRY5652Ok6KfdJgsY-6" value="$$h^{*}_{\mathcal{D}}$$" style="text;html=1;align=center;verticalAlign=middle;whiteSpace=wrap;rounded=0;fontSize=14;" vertex="1" parent="1">
          <mxGeometry x="300" y="150" width="60" height="30" as="geometry" />
        </mxCell>
        <mxCell id="PWPVRY5652Ok6KfdJgsY-7" value="$$h^*$$" style="text;html=1;align=center;verticalAlign=middle;whiteSpace=wrap;rounded=0;fontSize=14;" vertex="1" parent="1">
          <mxGeometry x="478" y="151" width="60" height="30" as="geometry" />
        </mxCell>
        <mxCell id="PWPVRY5652Ok6KfdJgsY-8" value="$$h_0$$" style="text;html=1;align=center;verticalAlign=middle;whiteSpace=wrap;rounded=0;fontSize=14;" vertex="1" parent="1">
          <mxGeometry x="520" y="74" width="60" height="30" as="geometry" />
        </mxCell>
        <mxCell id="PWPVRY5652Ok6KfdJgsY-9" value="&lt;font face=&quot;-apple-system, BlinkMacSystemFont, Segoe UI Adjusted, Segoe UI, Liberation Sans, sans-serif&quot; color=&quot;#0c0d0e&quot;&gt;&lt;span style=&quot;font-size: 15px;&quot;&gt;Hypothesis space&lt;/span&gt;&lt;/font&gt;" style="text;html=1;align=center;labelBackgroundColor=none;whiteSpace=wrap;" vertex="1" parent="1">
          <mxGeometry x="340" y="80" width="140" height="40" as="geometry" />
        </mxCell>
      </root>
    </mxGraphModel>
  </diagram>
  <diagram name="Page-2" id="2NxsKtm-J0jexToAwpRo">
    <mxGraphModel dx="1386" dy="751" grid="1" gridSize="10" guides="1" tooltips="1" connect="1" arrows="1" fold="1" page="1" pageScale="1" pageWidth="850" pageHeight="1100" math="1" shadow="0">
      <root>
        <mxCell id="0" />
        <mxCell id="1" parent="0" />
        <mxCell id="9tJqhrBSl-Vcd7Ql0bSB-1" value="&lt;font style=&quot;font-size: 16px;&quot;&gt;$$R$$&lt;/font&gt;" style="text;html=1;align=center;verticalAlign=middle;whiteSpace=wrap;rounded=0;" parent="1" vertex="1">
          <mxGeometry x="464" y="134" width="80" height="40" as="geometry" />
        </mxCell>
        <mxCell id="9tJqhrBSl-Vcd7Ql0bSB-2" value="" style="endArrow=classic;html=1;rounded=0;" parent="1" edge="1">
          <mxGeometry width="50" height="50" relative="1" as="geometry">
            <mxPoint x="230" y="140" as="sourcePoint" />
            <mxPoint x="530" y="140" as="targetPoint" />
          </mxGeometry>
        </mxCell>
        <mxCell id="9tJqhrBSl-Vcd7Ql0bSB-3" value="&lt;font style=&quot;font-size: 16px;&quot;&gt;$$0$$&lt;/font&gt;" style="text;html=1;align=center;verticalAlign=middle;whiteSpace=wrap;rounded=0;" parent="1" vertex="1">
          <mxGeometry x="230" y="134" width="80" height="40" as="geometry" />
        </mxCell>
        <mxCell id="9tJqhrBSl-Vcd7Ql0bSB-4" value="&lt;span style=&quot;font-size: 16px;&quot;&gt;$$\frac{1}{N}\log\frac{|H|}{\delta}$$&lt;/span&gt;" style="text;html=1;align=center;verticalAlign=middle;whiteSpace=wrap;rounded=0;" parent="1" vertex="1">
          <mxGeometry x="350" y="150" width="80" height="40" as="geometry" />
        </mxCell>
        <mxCell id="9tJqhrBSl-Vcd7Ql0bSB-5" value="" style="rounded=0;whiteSpace=wrap;html=1;" parent="1" vertex="1">
          <mxGeometry x="270" y="120" width="120" height="20" as="geometry" />
        </mxCell>
      </root>
    </mxGraphModel>
  </diagram>
  <diagram name="Page-3" id="GG-Gfg8LKv7xr7V41Ivy">
    <mxGraphModel dx="1386" dy="751" grid="1" gridSize="10" guides="1" tooltips="1" connect="1" arrows="1" fold="1" page="1" pageScale="1" pageWidth="850" pageHeight="1100" math="1" shadow="0">
      <root>
        <mxCell id="0" />
        <mxCell id="1" parent="0" />
        <mxCell id="ovnKYlMFVeupJGPruvIi-1" value="&lt;font style=&quot;font-size: 16px;&quot;&gt;$$R$$&lt;/font&gt;" style="text;html=1;align=center;verticalAlign=middle;whiteSpace=wrap;rounded=0;" parent="1" vertex="1">
          <mxGeometry x="464" y="134" width="80" height="40" as="geometry" />
        </mxCell>
        <mxCell id="ovnKYlMFVeupJGPruvIi-2" value="" style="endArrow=classic;html=1;rounded=0;" parent="1" edge="1">
          <mxGeometry width="50" height="50" relative="1" as="geometry">
            <mxPoint x="230" y="140" as="sourcePoint" />
            <mxPoint x="530" y="140" as="targetPoint" />
          </mxGeometry>
        </mxCell>
        <mxCell id="ovnKYlMFVeupJGPruvIi-3" value="&lt;font style=&quot;font-size: 16px;&quot;&gt;$$R^*$$&lt;/font&gt;" style="text;html=1;align=center;verticalAlign=middle;whiteSpace=wrap;rounded=0;" parent="1" vertex="1">
          <mxGeometry x="230" y="134" width="80" height="40" as="geometry" />
        </mxCell>
        <mxCell id="ovnKYlMFVeupJGPruvIi-4" value="&lt;span style=&quot;font-size: 16px;&quot;&gt;$$\sqrt{\frac{2}{N}\log\frac{2|H|}{\delta}}$$&lt;/span&gt;" style="text;html=1;align=center;verticalAlign=middle;whiteSpace=wrap;rounded=0;" parent="1" vertex="1">
          <mxGeometry x="350" y="150" width="80" height="40" as="geometry" />
        </mxCell>
        <mxCell id="ovnKYlMFVeupJGPruvIi-5" value="" style="rounded=0;whiteSpace=wrap;html=1;" parent="1" vertex="1">
          <mxGeometry x="270" y="120" width="120" height="20" as="geometry" />
        </mxCell>
      </root>
    </mxGraphModel>
  </diagram>
  <diagram name="Page-4" id="e9aBlabJj5VpVCQ7JCVK">
    <mxGraphModel dx="956" dy="518" grid="1" gridSize="10" guides="1" tooltips="1" connect="1" arrows="1" fold="1" page="1" pageScale="1" pageWidth="850" pageHeight="1100" math="1" shadow="0">
      <root>
        <mxCell id="0" />
        <mxCell id="1" parent="0" />
        <mxCell id="8Iu7VcYW625V4nTxazUi-1" value="" style="ellipse;whiteSpace=wrap;html=1;sketch=1;curveFitting=1;jiggle=2;strokeColor=#808080;" parent="1" vertex="1">
          <mxGeometry x="220" y="100" width="320" height="170" as="geometry" />
        </mxCell>
        <mxCell id="8Iu7VcYW625V4nTxazUi-2" value="" style="ellipse;whiteSpace=wrap;html=1;sketch=1;curveFitting=1;jiggle=2;strokeColor=#808080;fillColor=#6666FF;" parent="1" vertex="1">
          <mxGeometry x="305" y="150" width="120" height="80" as="geometry" />
        </mxCell>
        <mxCell id="8Iu7VcYW625V4nTxazUi-3" value="" style="ellipse;whiteSpace=wrap;html=1;fillColor=#FF6666;sketch=1;curveFitting=1;jiggle=2;strokeColor=#808080;" parent="1" vertex="1">
          <mxGeometry x="390" y="140" width="90" height="60" as="geometry" />
        </mxCell>
        <mxCell id="8Iu7VcYW625V4nTxazUi-4" value="&lt;b&gt;$$VS$$&lt;/b&gt;" style="text;html=1;align=center;verticalAlign=middle;whiteSpace=wrap;rounded=0;fontSize=14;" parent="1" vertex="1">
          <mxGeometry x="275" y="140" width="60" height="30" as="geometry" />
        </mxCell>
        <mxCell id="8Iu7VcYW625V4nTxazUi-5" value="$$B$$" style="text;html=1;align=center;verticalAlign=middle;whiteSpace=wrap;rounded=0;fontSize=14;" parent="1" vertex="1">
          <mxGeometry x="440" y="190" width="60" height="30" as="geometry" />
        </mxCell>
        <mxCell id="8Iu7VcYW625V4nTxazUi-6" value="&lt;font style=&quot;font-size: 16px;&quot;&gt;$$H$$&lt;/font&gt;" style="text;html=1;align=center;verticalAlign=middle;whiteSpace=wrap;rounded=0;fontSize=14;" parent="1" vertex="1">
          <mxGeometry x="340" y="54" width="60" height="30" as="geometry" />
        </mxCell>
        <mxCell id="7B4ChbBNKfUp3v8ZVOqA-1" value="&lt;font face=&quot;-apple-system, BlinkMacSystemFont, Segoe UI Adjusted, Segoe UI, Liberation Sans, sans-serif&quot; color=&quot;#0c0d0e&quot;&gt;&lt;span style=&quot;font-size: 15px;&quot;&gt;Hypothesis space&lt;/span&gt;&lt;/font&gt;" style="text;html=1;align=center;labelBackgroundColor=none;whiteSpace=wrap;" vertex="1" parent="1">
          <mxGeometry x="302" y="69" width="140" height="40" as="geometry" />
        </mxCell>
      </root>
    </mxGraphModel>
  </diagram>
</mxfile>
